<svg width="18" height="20" viewBox="0 0 18 20" fill="none" xmlns="http://www.w3.org/2000/svg">
<path fill-rule="evenodd" clip-rule="evenodd" d="M9.09833 1.8002C8.53831 1.8002 7.99751 2.02753 7.59593 2.4382C7.19376 2.84947 6.96472 3.41101 6.96472 4.0002V5.2002H11.2319V4.0002C11.2319 3.41101 11.0029 2.84947 10.6007 2.4382C10.1991 2.02753 9.65834 1.8002 9.09833 1.8002ZM12.8319 5.2002V4.0002C12.8319 2.99808 12.4428 2.0335 11.7447 1.31955C11.0459 0.605003 10.0944 0.200195 9.09833 0.200195C8.10226 0.200195 7.15071 0.605003 6.45197 1.31955C5.75383 2.0335 5.36472 2.99808 5.36472 4.0002V5.2002H3.55488M5.36472 6.8002H3.55479C3.39094 6.80018 3.22835 6.83636 3.07817 6.90693C2.92793 6.97754 2.79292 7.08122 2.68317 7.21202C2.57337 7.34288 2.4916 7.49763 2.44455 7.66604C2.39751 7.83444 2.38655 8.01161 2.41263 8.1851C2.41262 8.18506 2.41263 8.18514 2.41263 8.1851L3.63985 16.3371C3.71864 16.861 3.97777 17.3353 4.36564 17.6757C4.75306 18.0156 5.24362 18.2002 5.74815 18.2002C5.74813 18.2002 5.74816 18.2002 5.74815 18.2002H12.4485C12.9532 18.2003 13.4441 18.0159 13.8317 17.6759C14.2197 17.3355 14.4789 16.8613 14.5578 16.3372L15.785 8.18523C15.8111 8.01169 15.8001 7.83448 15.7531 7.66604C15.706 7.49763 15.6243 7.34288 15.5145 7.21202C15.4047 7.08122 15.2697 6.97754 15.1195 6.90693C14.9693 6.83636 14.8068 6.80018 14.6429 6.8002H12.8319V9.0002C12.8319 9.44202 12.4738 9.8002 12.0319 9.8002C11.5901 9.8002 11.2319 9.44202 11.2319 9.0002V6.8002H6.96472V9.0002C6.96472 9.44202 6.60655 9.8002 6.16472 9.8002C5.72289 9.8002 5.36472 9.44202 5.36472 9.0002V6.8002ZM12.8319 5.2002H14.6427C14.6427 5.2002 14.6428 5.2002 14.6427 5.2002C15.0428 5.20016 15.4377 5.28863 15.8 5.45886C16.1622 5.62908 16.4826 5.87669 16.7401 6.18357C16.9976 6.49041 17.1862 6.84938 17.2941 7.23552C17.4019 7.62163 17.4268 8.02666 17.3672 8.42316L16.14 16.5752C16.14 16.5752 16.14 16.5751 16.14 16.5752C16.0057 17.4679 15.5628 18.2858 14.8868 18.8787C14.2104 19.472 13.3456 19.8004 12.4485 19.8002C12.4484 19.8002 12.4486 19.8002 12.4485 19.8002H5.74815C4.8512 19.8002 3.98657 19.4716 3.31038 18.8783C2.63465 18.2854 2.19194 17.4678 2.05768 16.5753C2.05767 16.5752 2.05769 16.5753 2.05768 16.5753L0.830454 8.42329C0.770827 8.02679 0.79569 7.62163 0.90356 7.23552C1.01144 6.84938 1.20003 6.49041 1.45749 6.18357C1.71499 5.87669 2.03546 5.62908 2.39766 5.45886C2.75991 5.28863 3.15479 5.20016 3.55488 5.2002" fill="white"/>
</svg>
