<svg width="20" height="18" viewBox="0 0 20 18" fill="none" xmlns="http://www.w3.org/2000/svg">
<path fill-rule="evenodd" clip-rule="evenodd" d="M9.89963 0.200195C10.203 0.200195 10.4802 0.371742 10.6156 0.64319L13.0552 5.53547L18.5132 6.31834C18.8157 6.36173 19.0671 6.5737 19.161 6.86456C19.2548 7.15542 19.1748 7.47434 18.9547 7.68638L15.0044 11.4919L15.9355 16.8636C15.9874 17.1634 15.8648 17.4667 15.6191 17.6462C15.3734 17.8257 15.0471 17.8502 14.7773 17.7095L9.90517 15.1686L5.02131 17.7099C4.75149 17.8503 4.4254 17.8255 4.17987 17.646C3.93434 17.4665 3.81185 17.1633 3.86379 16.8636L4.79485 11.4919L0.8446 7.68638C0.624495 7.47434 0.544434 7.15542 0.63829 6.86456C0.732147 6.5737 0.983519 6.36173 1.28605 6.31834L6.7441 5.53547L9.18371 0.64319C9.31907 0.371742 9.59631 0.200195 9.89963 0.200195ZM9.89963 2.79288L7.98878 6.62483C7.87157 6.85988 7.64644 7.02242 7.38644 7.05972L3.13349 7.66973L6.21062 10.6341C6.40181 10.8183 6.48918 11.0853 6.44384 11.3469L5.71626 15.5446L9.53632 13.5569C9.768 13.4363 10.044 13.4365 10.2755 13.5572L14.0827 15.5428L13.3554 11.3469C13.3101 11.0853 13.3975 10.8183 13.5886 10.6341L16.6658 7.66973L12.4128 7.05972C12.1528 7.02242 11.9277 6.85988 11.8105 6.62483L9.89963 2.79288Z" fill="white"/>
</svg>
