<svg width="13" height="18" viewBox="0 0 13 18" fill="none" xmlns="http://www.w3.org/2000/svg">
<path fill-rule="evenodd" clip-rule="evenodd" d="M3.34958 1.46727C4.189 0.65329 5.32239 0.200195 6.49922 0.200195C7.67605 0.200195 8.80944 0.65329 9.64886 1.46727C10.4891 2.28207 10.9659 3.3925 10.9659 4.55575C10.9659 5.719 10.4891 6.82943 9.64886 7.64423C8.80944 8.45821 7.67605 8.91131 6.49922 8.91131C5.32239 8.91131 4.189 8.45821 3.34958 7.64423C2.50932 6.82943 2.03255 5.719 2.03255 4.55575C2.03255 3.3925 2.50932 2.28207 3.34958 1.46727ZM6.49922 1.8002C5.73112 1.8002 4.99926 2.0963 4.46341 2.61591C3.9284 3.13471 3.63255 3.83301 3.63255 4.55575C3.63255 5.27849 3.9284 5.97679 4.46341 6.49559C4.99926 7.0152 5.73112 7.31131 6.49922 7.31131C7.26731 7.31131 7.99918 7.0152 8.53503 6.49559C9.07004 5.97679 9.36589 5.27849 9.36589 4.55575C9.36589 3.83301 9.07004 3.13471 8.53503 2.61591C7.99918 2.0963 7.26731 1.8002 6.49922 1.8002ZM4.66589 12.4669C3.89779 12.4669 3.16592 12.763 2.63008 13.2826C2.09507 13.8014 1.79922 14.4997 1.79922 15.2224V17.0002C1.79922 17.442 1.44105 17.8002 0.999219 17.8002C0.557391 17.8002 0.199219 17.442 0.199219 17.0002V15.2224C0.199219 14.0592 0.675987 12.9487 1.51624 12.1339C2.35566 11.32 3.48906 10.8669 4.66589 10.8669H8.33255C9.50938 10.8669 10.6428 11.32 11.4822 12.1339C12.3224 12.9487 12.7992 14.0592 12.7992 15.2224V17.0002C12.7992 17.442 12.441 17.8002 11.9992 17.8002C11.5574 17.8002 11.1992 17.442 11.1992 17.0002V15.2224C11.1992 14.4997 10.9034 13.8014 10.3684 13.2826C9.83251 12.763 9.10065 12.4669 8.33255 12.4669H4.66589Z" fill="white"/>
</svg>
